# xmcd
# Track frame offsets:
# 150
# 12087
# 25020
# 38730
# 57965
# 69912
# 85242
# 95817
# 109207
# 122355
#
# Disc length: 1796 seconds
# Revision: 0
# Processed by: cddbd v1.4PL0 Copyright (c) Steve Scherf et al.
# Submitted via: VisiTrax 2.9.5.181 - For more info visit www.synapsa.com
#
DISCID=7407020a
DTITLE=Tammy Wynette - Winners (Legends Series)
DYEAR=1900
DGENRE=
TTITLE0='Til I Get It Right
TTITLE1=My Man (Understands)
TTITLE2='Til I Make It On My Own
TTITLE3=Ode To Billy Joe
TTITLE4=Stand By Your Man
TTITLE5=You Needed Me
TTITLE6=They Call It Making Love
TTITLE7=D-I-V-O-R-C-E
TTITLE8=Kids Say The Darnest Things
TTITLE9=Cry
EXTD=
EXTT0=
EXTT1=
EXTT2=
EXTT3=
EXTT4=
EXTT5=
EXTT6=
EXTT7=
EXTT8=
EXTT9=
PLAYORDER=
